<?xml version="1.0" encoding="utf-8"?>
<!-- Generator: Adobe Illustrator 24.2.1, SVG Export Plug-In . SVG Version: 6.00 Build 0)  -->
<svg version="1.1" id="Layer_1" xmlns="http://www.w3.org/2000/svg" xmlns:xlink="http://www.w3.org/1999/xlink" x="0px" y="0px"
	 viewBox="0 0 1200 1200" style="enable-background:new 0 0 1200 1200;" xml:space="preserve">
<style type="text/css">
	.st0{fill:#55C5E2;}
	.st1{fill:#28C180;}
	.st2{fill:#0D9571;}
	.st3{fill:#FCFCFC;}
</style>
<g>
	<path class="st0" d="M389.22,901.89c0,0-301.39-215.11-160.7-495.59c65.68-130.94,210.42-52.56,379.65-189.25
		c-342.23-92.16-688.07,179.7-486.11,558.86c0,0,178.18,321.81,444.25,253.1C505.85,1007.08,445.83,966.24,389.22,901.89z"/>
	<path class="st1" d="M646.58,182.55c-12.93,12.83-25.74,24.27-38.41,34.5c10.89,2.93,21.77,6.23,32.63,9.91
		c283.73,96.05,495.09,419.81,308.77,531.29c-225.5,134.92-210.38,213.46-360.62,264.05c-7.62,2.56-15.16,4.79-22.64,6.72
		c254.08,92.16,515.97-149.76,565.4-384.74C1192.9,353.37,779,51.13,646.58,182.55z"/>
	<path class="st2" d="M949.57,758.25c186.32-111.48-25.03-435.24-308.77-531.29c-10.86-3.68-21.74-6.97-32.63-9.91
		C438.94,353.74,294.2,275.36,228.52,406.3c-140.69,280.47,160.7,495.59,160.7,495.59c56.61,64.36,116.63,105.2,177.08,127.12
		c7.48-1.93,15.02-4.15,22.64-6.72C739.19,971.7,724.06,893.17,949.57,758.25z"/>
</g>
<g>
	<path class="st3" d="M526.03,588.34c-0.21,1.07-0.84,5.97-1.25,7.03c-5.23,8.95-10.71,17.21-16.46,24.76
		c-5.75,7.56-11.86,14.04-18.34,19.41c-6.48,5.38-13.27,9.59-20.38,12.62c-7.11,3.04-14.63,4.55-22.57,4.55
		c-3.35,0-6.69-0.32-10.03-0.96c-4.39-0.64-8.67-1.86-12.85-3.67c-4.18-1.81-7.84-4.31-10.97-7.51c-3.14-3.2-5.7-7.24-7.68-12.14
		c-1.99-4.9-2.98-10.75-2.98-17.57c0-7.67,1.67-15.12,5.02-22.37c3.34-7.24,7.84-13.74,13.48-19.49
		c5.64-5.75,12.17-10.33,19.59-13.74c7.42-3.4,15.31-5.11,23.67-5.11c2.51,0,5.06,0.16,7.68,0.48c2.61,0.32,5.17,0.91,7.68,1.76
		c2.92,0.85,4.96,1.97,6.11,3.36c1.15,1.39,1.72,2.83,1.72,4.31c0,2.13-1.1,3.99-3.29,5.59c-2.19,1.6-5.17,2.4-8.93,2.4
		c-2.09,0-3.66-0.11-4.7-0.32c-0.42,0-0.68-0.05-0.78-0.16c-0.11-0.11-0.37-0.16-0.78-0.16c-4.81,0-9.56,3.21-14.26,9.63
		c-4.7,6.42-8.2,14.24-10.5,23.44c-0.63,2.57-1.15,5.19-1.57,7.86c-0.42,2.68-0.63,5.3-0.63,7.87c0,4.71,0.94,8.83,2.82,12.36
		c1.88,3.54,5.43,5.51,10.66,5.94h1.57c4.8,0,16.14-2.66,21.69-6.15c11.51-7.24,21.09-15.24,31.04-27.24
		c7.2-8.68,5.15-18.59,9.33-25.41c0.21-0.21,0.52-0.32,0.94-0.32c0.83,0,2.51,2.77,2.51,3.2c0.21,0.43,2.54,5.05,2.64,5.2
		C525.47,588.15,525.73,588.34,526.03,588.34z"/>
	<g>
		<path class="st3" d="M623.53,581.37c-0.18,1.8-0.36,4.39-0.52,7.78c-0.17,3.39-0.34,7.23-0.49,11.52
			c-0.16,4.29-0.32,8.78-0.48,13.46c-0.16,4.69-0.22,9.23-0.19,13.61c0.04,5.59,0.32,10.42,0.83,14.5c0.51,4.09,1.35,6.62,2.51,7.61
			c0.19,0.2,0.48,0.3,0.87,0.29c1.73-0.01,4.51-1.92,8.34-5.74c3.83-3.81,8.13-8.73,12.9-14.74c4.77-6.01,9.74-12.67,14.89-19.99
			c5.15-7.31,10.76,7.96,9.61,9.36c-10.11,14.62-19.09,25.2-26.95,31.73c-7.86,6.53-15.25,9.82-22.19,9.86
			c-4.05,0.03-7.91-0.95-11.59-2.92c-3.68-1.97-7.46-4.74-11.34-8.31c-4.47-4.16-7.7-10.77-9.69-19.83
			c-2-9.06-3.04-19.77-3.13-32.14c-0.09-12.36,0.68-25.93,2.31-40.7c1.44-13.17,3.95-26.5,7.52-39.98
			c3.56-13.48,7.81-25.67,12.75-36.58c4.93-10.9,10.31-19.96,16.14-27.17c5.83-7.22,11.63-11.34,17.4-12.37
			c0.96-0.2,1.78-0.31,2.46-0.31c0.67,0,1.4-0.01,2.17-0.01c5.39-0.03,9.65,1.84,12.76,5.6c3.11,3.77,4.7,9.84,4.76,18.22
			c0.02,3.39-0.24,7.18-0.78,11.37c-1.65,10.98-3.85,20.97-6.58,29.96c-2.73,8.99-5.85,17.54-9.36,25.64
			c-3.51,8.1-7.4,16.2-11.68,24.3C632.51,563.51,628.09,572.17,623.53,581.37z M654.41,453.14c-2.86,4.61-5.94,11.31-9.25,20.1
			c-3.31,8.8-6.42,18.14-9.34,28.03c-2.92,9.89-5.4,19.48-7.45,28.77c-2.06,9.29-3.16,16.52-3.31,21.71
			c3.41-7.8,6.58-15.45,9.52-22.95c2.93-7.5,5.67-15.09,8.22-22.79c2.55-7.69,4.85-15.54,6.91-23.53
			c2.06-7.99,3.73-16.48,5.02-25.46c-0.01-0.79-0.06-1.69-0.16-2.69C654.45,453.34,654.41,452.94,654.41,453.14z"/>
	</g>
	<path class="st3" d="M550.09,576.84c-4.06,1.75-7.69,4.11-10.88,7.08c-3.19,2.97-5.99,6.28-8.37,9.96
		c-2.39,3.67-4.37,7.62-5.94,11.85c-1.58,4.23-2.83,8.37-3.77,12.44c-0.1,0.81-0.2,1.86-0.3,3.13c-0.1,1.27-0.14,2.62-0.13,4.04
		c0.02,2.13,0.17,4.37,0.45,6.7c0.28,2.34,0.81,4.47,1.57,6.39c0.76,1.93,1.82,3.52,3.17,4.78c1.35,1.26,3.09,1.89,5.24,1.87
		c2.14-0.01,3.94-0.33,5.38-0.95s2.8-1.44,4.08-2.46c1.81-1.33,3.36-2.86,4.63-4.6c1.27-1.73,2.39-3.57,3.34-5.51
		c2.75-5.3,4.93-10.93,6.55-16.88c1.62-5.95,2.78-11.98,3.49-18.08c-0.01-1.73-0.13-3.6-0.36-5.64c-0.23-2.03-0.67-3.86-1.33-5.48
		c0-0.2-0.03-0.4-0.08-0.61c-0.06-0.2-0.08-0.4-0.08-0.61c0-0.3,0.05-0.51,0.16-0.61c0-0.51,0.32-0.76,0.96-0.77
		c0.43,0,0.75,0.05,0.97,0.15l1.14,2.13c0.54,0,1.18,0.55,1.94,1.66c0.76,1.11,1.19,1.92,1.3,2.43c0.54,0.51,1.03,1.01,1.46,1.51
		c0.43,0.51,0.76,1.16,0.98,1.97c0.11,0.1,0.16,0.3,0.17,0.61c0,0.3,0.06,0.51,0.17,0.61c0.75,0.3,1.37,1.01,1.87,2.12
		c0.49,1.12,0.87,2.41,1.15,3.88c0.28,1.47,0.48,2.92,0.59,4.34c0.12,1.42,0.18,2.59,0.19,3.5c0.03,4.27-0.5,8.84-1.59,13.72
		c-1.09,4.88-2.74,9.59-4.96,14.13c-2.22,4.53-5,8.64-8.35,12.32c-3.35,3.68-7.22,6.44-11.6,8.3c-2.46,1.03-5.19,1.56-8.19,1.58
		c-3.11,0.02-6.28-0.47-9.5-1.46c-3.22-0.99-6.13-2.35-8.72-4.06c-3.66-2.31-6.79-4.6-9.38-6.87c-2.59-2.27-4.73-4.72-6.41-7.35
		c-1.68-2.63-2.94-5.49-3.76-8.59c-0.83-3.09-1.25-6.62-1.28-10.58c-0.01-0.81-0.01-1.62-0.02-2.44c-0.01-0.81,0.04-1.62,0.14-2.44
		c-0.04-4.98,1.15-10.57,3.58-16.78c2.42-6.21,5.67-12.17,9.76-17.89c4.08-5.71,8.79-10.72,14.12-15.02
		c5.33-4.3,10.83-7.08,16.5-8.33c0.75-0.21,1.82-0.37,3.21-0.48c1.39-0.11,3-0.17,4.82-0.18c1.93-0.01,3.99,0.08,6.19,0.27
		c2.2,0.19,4.24,0.51,6.12,0.95c1.88,0.45,3.49,1.04,4.84,1.8c1.34,0.75,2.18,1.69,2.51,2.8c0.54,1.22,1.03,2.15,1.47,2.81
		c0.43,0.66,0.65,1.5,0.66,2.51c0.01,0.81-0.15,1.73-0.46,2.75c-0.63,1.63-1.67,2.88-3.11,3.75c-1.44,0.87-3.1,1.54-4.97,2.01
		c-1.87,0.47-3.8,0.81-5.78,1.03C553.65,576.26,551.8,576.53,550.09,576.84z"/>
	<path class="st3" d="M709.7,576.84c-4.06,1.75-7.69,4.11-10.88,7.08c-3.19,2.97-5.99,6.28-8.37,9.96
		c-2.39,3.67-4.37,7.62-5.94,11.85c-1.58,4.23-2.83,8.37-3.77,12.44c-0.1,0.81-0.2,1.86-0.3,3.13c-0.1,1.27-0.14,2.62-0.13,4.04
		c0.02,2.13,0.17,4.37,0.45,6.7c0.28,2.34,0.81,4.47,1.57,6.39c0.76,1.93,1.82,3.52,3.17,4.78c1.35,1.26,3.1,1.89,5.24,1.87
		c2.14-0.01,3.94-0.33,5.38-0.95s2.8-1.44,4.08-2.46c1.81-1.33,3.36-2.86,4.63-4.6c1.27-1.73,2.39-3.57,3.34-5.51
		c2.75-5.3,4.93-10.93,6.55-16.88c1.62-5.95,2.78-11.98,3.49-18.08c-0.01-1.73-0.13-3.6-0.36-5.64c-0.23-2.03-0.67-3.86-1.33-5.48
		c0-0.2-0.03-0.4-0.08-0.61c-0.06-0.2-0.08-0.4-0.08-0.61c0-0.3,0.05-0.51,0.16-0.61c0-0.51,0.32-0.76,0.96-0.77
		c0.43,0,0.75,0.05,0.97,0.15l1.14,2.13c0.54,0,1.18,0.55,1.94,1.66c0.76,1.11,1.19,1.92,1.3,2.43c0.54,0.51,1.03,1.01,1.46,1.51
		c0.43,0.51,0.76,1.16,0.98,1.97c0.11,0.1,0.16,0.3,0.17,0.61c0,0.3,0.06,0.51,0.17,0.61c0.75,0.3,1.37,1.01,1.87,2.12
		c0.49,1.12,0.87,2.41,1.15,3.88c0.28,1.47,0.48,2.92,0.59,4.34c0.12,1.42,0.18,2.59,0.19,3.5c0.03,4.27-0.5,8.84-1.59,13.72
		c-1.09,4.88-2.74,9.59-4.96,14.13c-2.22,4.53-5,8.64-8.35,12.32c-3.35,3.68-7.22,6.44-11.6,8.3c-2.46,1.03-5.19,1.56-8.19,1.58
		c-3.11,0.02-6.28-0.47-9.5-1.46c-3.22-0.99-6.13-2.35-8.72-4.06c-3.66-2.31-6.79-4.6-9.38-6.87c-2.59-2.27-4.73-4.72-6.41-7.35
		c-1.68-2.63-2.94-5.49-3.76-8.59c-0.83-3.09-1.25-6.62-1.28-10.58c-0.01-0.81-0.01-1.62-0.02-2.44c-0.01-0.81,0.04-1.62,0.14-2.44
		c-0.04-4.98,1.15-10.57,3.58-16.78c2.42-6.21,5.67-12.17,9.76-17.89c4.08-5.71,8.79-10.72,14.12-15.02
		c5.33-4.3,10.83-7.08,16.5-8.33c0.75-0.21,1.82-0.37,3.21-0.48c1.39-0.11,3-0.17,4.82-0.18c1.93-0.01,3.99,0.08,6.19,0.27
		c2.2,0.19,4.24,0.51,6.12,0.95c1.88,0.45,3.49,1.04,4.84,1.8c1.34,0.75,2.18,1.69,2.51,2.8c0.54,1.22,1.03,2.15,1.47,2.81
		c0.43,0.66,0.65,1.5,0.66,2.51c0.01,0.81-0.15,1.73-0.46,2.75c-0.63,1.63-1.67,2.88-3.11,3.75c-1.44,0.87-3.1,1.54-4.97,2.01
		c-1.87,0.47-3.8,0.81-5.78,1.03C713.26,576.26,711.42,576.53,709.7,576.84z"/>
	<path class="st3" d="M831.63,605.98c-0.19-3.09-1.45-35.37-1.45-36.53c0-0.96,0.1-1.93,0.29-2.9c0.19-0.97,0.29-1.93,0.29-2.9
		c-0.2-2.12-0.87-3.81-2.03-5.07c-1.16-1.25-2.56-2.17-4.2-2.75c-1.64-0.58-3.43-0.97-5.36-1.16c-1.93-0.19-3.87-0.29-5.8-0.29
		c-8.51,0-17.01,1.88-25.51,5.65c-8.51,3.77-16.19,8.51-23.05,14.2c-6.86,5.7-12.42,11.94-16.67,18.7
		c-4.25,6.77-6.38,13.24-6.38,19.42c0,3.29,7.89,39.36,53.22,5.57c16.64-12.4,15.09-19.11,17.22-20.08
		c0.19,2.71,0.29,3.11,0.29,5.81v15.94c-3.87,4.06-27.64,28.1-49.18,56.6c-9.87,14.52-19,34.84-21.54,48.14
		c-2.5,13.12-7.51,41.39,22.74,34.19c15.89-3.79,41.86-35.46,48.86-54.57c7.67-20.95,17.66-44.54,18.82-72.76L831.63,605.98z
		 M793.08,598.3c-11.75,12.31-26.03,16.79-29.14,13.93c-3.27-3.01,6.59-17.85,17.73-27.24c16.13-13.59,23.81-15.71,26.33-16.68
		C811.45,568.53,806.39,584.36,793.08,598.3z M803.94,672.51c-3.19,8.6-7.06,17.25-11.6,25.95c-4.54,8.7-9.52,16.71-14.93,24.06
		c-5.41,7.34-10.54,12.66-15.36,15.94c0.19-7.15,2.07-14.74,5.65-22.76c3.57-8.02,7.83-15.94,12.76-23.77
		c4.93-7.83,10.05-15.31,15.36-22.47c5.31-7.15,9.9-13.43,13.77-18.84C809.02,656.62,807.13,663.91,803.94,672.51z"/>
	<g>
		<path class="st3" d="M890.6,570.28c-0.08,1.9-0.54,5.29-1.4,10.18c-0.86,4.89-1.74,10.3-2.63,16.24
			c-0.89,5.94-1.67,11.77-2.31,17.48c-0.65,5.72-0.88,10.36-0.71,13.93c0.14,2.73,0.56,4.5,1.28,5.3c0.36,0.41,0.79,0.59,1.3,0.57
			c1.35-0.07,3.19-1.47,5.52-4.22c2.32-2.75,6.97-8.94,9.78-14.79c1.51-3.15,3.35-6.23,3.66-6.88c0.62-1.08,1.36-1.65,2.21-1.69
			c1.35-0.07,2.62,0.71,3.81,2.34c1.18,1.63,1.83,3.49,1.93,5.59c0.07,1.47-0.21,2.75-0.83,3.83c0,0-1.04,4.79-4.6,10.02
			c-3.56,5.23-7.37,9.58-11.44,13.04c-4.07,3.47-8.31,5.31-12.7,5.53c-1.19,0.06-2.33,0.01-3.44-0.14
			c-1.11-0.15-2.36-0.51-3.74-1.08c-1.22-0.57-2.78-1.33-4.7-2.29c-1.92-0.96-3.82-2.54-5.71-4.77c-1.89-2.22-3.57-5.19-5.02-8.91
			c-1.46-3.72-2.34-8.62-2.64-14.71c-0.22-4.41-0.02-9.68,0.61-15.82c0.63-6.14,1.56-12.13,2.8-17.98
			c1.24-5.85,2.71-11.13,4.43-15.85c1.71-4.71,3.55-7.86,5.51-9.43c0.64-0.66,1.64-1.03,3-1.1c0.67-0.03,1.4-0.02,2.17,0.05
			c0.77,0.07,1.57,0.08,2.42,0.04c3.05-0.15,5.77,0.98,8.19,3.38c2.41,2.41,3.69,5.08,3.84,8.02
			C891.23,567.62,891.04,569,890.6,570.28z"/>
		<path class="st3" d="M897.68,529.6c0.21,4.18-0.96,7.88-3.49,11.1c-2.53,3.22-5.41,4.9-8.64,5.06c-1.97,0.1-3.86-0.74-5.65-2.53
			c-1.8-1.78-3.38-3.75-4.74-5.89c-1.36-2.13-2.86-5.04-4.47-8.71c-0.11-2.2,0.55-4.27,1.98-6.22c1.43-1.94,3.14-3.63,5.14-5.06
			c2-1.42,4.05-2.52,6.17-3.29c2.12-0.77,3.71-1.18,4.79-1.23c2.51-0.12,4.53,0.88,6.08,3.01c1.54,2.13,2.45,5.95,2.72,11.45
			L897.68,529.6z"/>
	</g>
	<path class="st3" d="M817.79,616.66c0,0,24.07-20.9,38.64-29.14s0,14.57,0,14.57l-44.34,44.97L817.79,616.66z"/>
	<path class="st3" d="M306.64,472.89c0,0-13.93-10.13,6.33-13.93c20.27-3.8,96.27,2.53,98.18,3.8c1.9,1.27-1.9,12.03-8.87,12.03
		c-6.97,0-53.84,2.53-53.84,2.53l-10.77,72.21c0,0,50.67,0.63,53.84,2.53c3.17,1.9-2.53,13.3-6.97,13.93c-4.43,0.63-49.4-1.9-49.4,0
		c0,0-8.87,65.87-8.87,69.67c0,3.8,15.84,3.88,19.64,3.8c30.4-0.63,43.07-0.63,49.4-1.9c5.56-1.11,6.97,5.07,5.07,6.97
		c-1.9,1.9-10.77,5.07-46.87,13.3c-15.03,3.43-57,7.6-63.34-1.27c-6.33-8.87-1.89-47.9,1.27-68.41
		C295.24,563.46,306.64,472.89,306.64,472.89z"/>
	<path class="st3" d="M831.63,609.78"/>
</g>
</svg>
